<?xml version="1.0" standalone="no"?>
<!DOCTYPE svg PUBLIC "-//W3C//DTD SVG 20010904//EN"
 "http://www.w3.org/TR/2001/REC-SVG-20010904/DTD/svg10.dtd">
<svg version="1.0" xmlns="http://www.w3.org/2000/svg"
 width="500.000000pt" height="500.000000pt" viewBox="0 0 500.000000 500.000000"
 preserveAspectRatio="xMidYMid meet">

<g transform="translate(0.000000,500.000000) scale(0.100000,-0.100000)"
fill="#000000" stroke="none">
<path d="M2103 2920 c-58 -23 -107 -137 -173 -400 -38 -151 -70 -220 -118
-260 -36 -30 -91 -40 -118 -22 -20 13 -34 50 -34 92 0 42 48 243 101 429 17
57 28 110 25 117 -5 12 -46 21 -46 9 0 -21 -124 -444 -143 -486 -46 -102 -116
-169 -178 -171 -42 -1 -59 23 -59 84 0 43 63 309 119 502 30 103 17 111 -65
38 -30 -27 -96 -70 -147 -97 -124 -65 -151 -86 -166 -133 -22 -66 13 -126 79
-134 34 -4 40 29 7 41 -25 10 -37 29 -37 61 0 31 47 76 118 116 37 20 87 53
111 72 35 29 43 32 39 17 -93 -336 -120 -452 -116 -506 5 -67 24 -94 74 -108
66 -18 147 23 199 99 l30 45 5 -47 c10 -82 70 -120 159 -98 108 26 161 111
221 354 54 220 77 283 123 328 53 54 49 82 -10 58z"/>
<path d="M2525 2892 c-77 -17 -153 -161 -215 -412 -25 -99 -59 -166 -113 -222
-29 -30 -45 -38 -65 -36 -24 3 -27 7 -24 38 1 19 21 102 43 184 40 147 41 177
6 163 -17 -6 -31 -49 -78 -238 -34 -134 -34 -170 3 -190 46 -25 125 26 190
121 l17 25 0 -42 c1 -80 75 -130 155 -103 33 11 116 89 116 110 0 5 5 10 10
10 6 0 10 -11 10 -25 0 -71 60 -116 125 -95 38 13 100 70 110 101 4 11 11 19
16 19 6 0 8 -4 5 -8 -10 -17 15 -82 38 -97 17 -11 30 -12 55 -5 40 11 56 24
93 74 27 38 28 39 28 12 0 -66 56 -112 121 -99 32 6 79 46 117 98 l21 30 1
-32 c1 -102 76 -119 163 -36 41 40 40 41 22 -26 -7 -22 30 -40 47 -23 5 5 21
54 34 108 30 118 34 124 98 192 77 82 127 102 147 59 8 -18 4 -52 -20 -154
-17 -72 -31 -140 -31 -152 0 -86 100 -89 167 -5 35 45 93 156 93 179 0 31 -16
13 -53 -60 -40 -78 -94 -135 -127 -135 -29 0 -26 43 12 182 37 138 34 183 -16
207 -48 22 -100 0 -170 -72 -33 -34 -57 -54 -53 -45 32 85 29 124 -9 116 -13
-2 -24 -30 -46 -113 -42 -162 -115 -270 -177 -263 -37 4 -37 31 -3 166 26 106
27 114 11 123 -26 13 -26 13 -45 -43 -43 -134 -134 -258 -189 -258 -77 0 -68
142 18 264 11 15 40 41 65 57 55 35 110 38 166 10 58 -30 92 -5 42 31 -35 25
-103 40 -150 32 -97 -16 -175 -87 -246 -227 -51 -101 -99 -157 -135 -157 -18
0 -25 7 -30 28 -13 60 37 267 123 510 32 91 38 114 26 119 -8 3 -20 3 -28 0
-10 -4 -64 -136 -111 -274 -3 -9 -25 -13 -62 -13 -114 -1 -179 -52 -257 -203
-61 -120 -107 -167 -169 -174 -43 -5 -46 -4 -62 28 -14 26 -16 47 -11 102 l6
69 89 87 c97 95 146 171 163 254 18 84 -17 142 -77 129z m26 -119 c-20 -77
-69 -167 -123 -227 -28 -32 -52 -55 -55 -52 -16 15 91 287 128 327 28 30 31
31 47 16 14 -15 15 -23 3 -64z m331 -219 c9 -9 -30 -141 -60 -203 -72 -149
-182 -178 -182 -48 0 134 95 256 201 257 20 0 38 -3 41 -6z"/>
<path d="M2164 2746 c-11 -28 1 -51 25 -51 28 0 47 25 38 49 -8 20 -56 21 -63
2z"/>
</g>
</svg>
